<?xml version="1.0" encoding="UTF-8"?>
<svg version="1.1" xmlns="http://www.w3.org/2000/svg" width="512" height="512">
<path d="M0 0 C1.01572887 -0.00297112 2.03145774 -0.00594224 3.07796627 -0.0090034 C6.4683322 -0.01764792 9.85866264 -0.01919506 13.2490387 -0.02069092 C15.68565953 -0.02532218 18.12227965 -0.03034726 20.55889893 -0.03573608 C27.17092519 -0.04883434 33.78294413 -0.05533768 40.39498019 -0.05974674 C44.53130708 -0.06251721 48.66763166 -0.06675607 52.80395699 -0.07125092 C64.27780097 -0.08343921 75.75164312 -0.09373855 87.22549343 -0.09712601 C88.32551136 -0.09745536 88.32551136 -0.09745536 89.44775188 -0.09779136 C90.18276127 -0.09800964 90.91777066 -0.09822791 91.67505306 -0.09845281 C93.16423317 -0.09889626 94.65341328 -0.09934282 96.14259338 -0.09979248 C96.88126379 -0.10001391 97.61993419 -0.10023534 98.38098855 -0.10046348 C110.33209754 -0.10440585 122.28314535 -0.12184467 134.23423075 -0.145152 C146.53249348 -0.16894082 158.83072561 -0.18133131 171.12901169 -0.18249393 C178.02254927 -0.18340661 184.91600717 -0.18905527 191.80952263 -0.20731354 C198.30122858 -0.22444805 204.79282422 -0.22591123 211.28454781 -0.21717453 C213.65594004 -0.21640834 216.02734064 -0.2206911 218.39871216 -0.23063278 C245.88730029 -0.33903706 271.04159652 3.83599443 291.87232971 23.29278564 C312.8374192 44.9445047 315.981443 71.13084768 315.92018127 99.96832275 C315.92289679 102.13174049 315.92646085 104.2951573 315.93080139 106.45857239 C315.93986157 112.29330646 315.93640744 118.12796922 315.93004322 123.96270442 C315.9249494 130.09442624 315.92968408 136.2261423 315.93281555 142.35786438 C315.93644566 152.65250739 315.93168151 162.94712162 315.9221344 173.24176025 C315.91125461 185.10978024 315.91477587 196.97773147 315.92578721 208.8457498 C315.93489082 219.07042746 315.93613028 229.29508455 315.93090987 239.51976496 C315.92780666 245.6111031 315.92733511 251.70240903 315.93398285 257.79374504 C315.93980045 263.52386218 315.93567936 269.25389151 315.92419434 274.98399925 C315.92157108 277.0752269 315.92227239 279.16646205 315.92671967 281.25768661 C315.97743871 307.5503132 312.99537136 330.16591343 295.66139221 351.14044189 C294.91889221 352.13044189 294.17639221 353.12044189 293.41139221 354.14044189 C289.52261176 358.77555395 284.54101508 362.6044833 279.66139221 366.14044189 C279.00139221 366.14044189 278.34139221 366.14044189 277.66139221 366.14044189 C277.33139221 366.80044189 277.00139221 367.46044189 276.66139221 368.14044189 C275.17639221 368.60450439 275.17639221 368.60450439 273.66139221 369.07794189 C272.67139221 369.42856689 271.68139221 369.77919189 270.66139221 370.14044189 C270.33139221 371.13044189 270.00139221 372.12044189 269.66139221 373.14044189 C267.02139221 373.47044189 264.38139221 373.80044189 261.66139221 374.14044189 C261.66139221 374.80044189 261.66139221 375.46044189 261.66139221 376.14044189 C260.9021344 376.26161377 260.14287659 376.38278564 259.36061096 376.50762939 C258.36674377 376.67520752 257.37287659 376.84278564 256.34889221 377.01544189 C255.3627594 377.17786377 254.37662659 377.34028564 253.36061096 377.50762939 C250.46079394 378.02129644 250.46079394 378.02129644 247.66139221 380.14044189 C246.67139221 379.81044189 245.68139221 379.48044189 244.66139221 379.14044189 C242.76642351 379.3649112 240.87188078 379.59536011 238.9825058 379.86285782 C234.70982318 380.3738318 230.42009629 380.3798815 226.12135315 380.45245361 C224.53537952 380.48318907 224.53537952 380.48318907 222.91736603 380.51454544 C219.32691165 380.58092046 215.73639396 380.6388778 212.14576721 380.69512939 C210.86978416 380.71606533 209.59380112 380.73700127 208.27915192 380.75857162 C168.98866689 381.39287899 129.69077318 381.29157614 90.39643049 381.26901126 C81.85952061 381.26462766 73.32262528 381.26780294 64.7857163 381.27263939 C56.43880129 381.27717542 48.09189259 381.27782145 39.74497676 381.27520072 C34.80816854 381.27365253 29.87137025 381.2734057 24.93456268 381.27673721 C20.3406709 381.27962627 15.74680667 381.27762134 11.15291786 381.27184296 C9.47594308 381.27052496 7.79896595 381.2708931 6.12199211 381.27310562 C3.82896242 381.27585261 1.53602037 381.27239401 -0.75700378 381.26742554 C-2.03595394 381.26704851 -3.3149041 381.26667149 -4.63261032 381.26628304 C-10.44759349 381.06882901 -16.04630975 380.38673651 -21.65110779 378.76544189 C-22.57149841 378.50376221 -23.49188904 378.24208252 -24.44017029 377.97247314 C-25.39665466 377.69790283 -26.35313904 377.42333252 -27.33860779 377.14044189 C-29.40033848 376.57512864 -31.46281424 376.01252408 -33.52610779 375.45294189 C-35.13027445 375.01544189 -36.73444112 374.57794189 -38.33860779 374.14044189 C-38.33860779 373.48044189 -38.33860779 372.82044189 -38.33860779 372.14044189 C-42.79360779 370.65544189 -42.79360779 370.65544189 -47.33860779 369.14044189 C-47.33860779 368.48044189 -47.33860779 367.82044189 -47.33860779 367.14044189 C-48.32860779 367.14044189 -49.31860779 367.14044189 -50.33860779 367.14044189 C-50.33860779 366.48044189 -50.33860779 365.82044189 -50.33860779 365.14044189 C-50.91610779 364.85169189 -51.49360779 364.56294189 -52.08860779 364.26544189 C-52.83110779 363.89419189 -53.57360779 363.52294189 -54.33860779 363.14044189 C-54.99860779 362.85169189 -55.65860779 362.56294189 -56.33860779 362.26544189 C-58.77936413 360.89251645 -60.42948845 359.17683585 -62.33860779 357.14044189 C-62.99860779 356.48044189 -63.65860779 355.82044189 -64.33860779 355.14044189 C-68.33860779 350.43455954 -68.33860779 350.43455954 -68.33860779 348.14044189 C-68.99860779 348.14044189 -69.65860779 348.14044189 -70.33860779 348.14044189 C-71.31517029 346.38262939 -72.29173279 344.62481689 -73.26829529 342.86700439 C-74.34758052 340.9791805 -74.34758052 340.9791805 -76.33860779 339.14044189 C-77.33860779 336.14044189 -77.33860779 336.14044189 -78.33860779 333.14044189 C-78.99860779 332.48044189 -79.65860779 331.82044189 -80.33860779 331.14044189 C-81.53353118 328.20690497 -82.40670819 325.16661049 -83.33860779 322.14044189 C-83.70985779 321.00606689 -84.08110779 319.87169189 -84.46360779 318.70294189 C-86.37202625 310.93295245 -86.48626998 302.99162652 -86.47232056 295.02552795 C-86.47458611 294.05820431 -86.47685167 293.09088066 -86.47918588 292.09424418 C-86.48547346 288.88022018 -86.48469993 285.66623891 -86.48387146 282.45220947 C-86.48686608 280.13699795 -86.49026931 277.82178692 -86.49404907 275.50657654 C-86.50285888 269.23830089 -86.50522581 262.97003891 -86.50586486 256.70175767 C-86.50657667 252.78426551 -86.50871339 248.86677681 -86.51136208 244.94928551 C-86.52012673 231.98416765 -86.52478304 219.01905947 -86.5240316 206.05393878 C-86.52399165 205.35650092 -86.52395169 204.65906306 -86.52391052 203.94049072 C-86.52386964 203.24219682 -86.52382876 202.54390293 -86.52378664 201.82444861 C-86.52337971 190.49397819 -86.53296449 179.16354092 -86.54704889 167.83308009 C-86.56141535 156.18342898 -86.5681359 144.53379557 -86.56745511 132.88413543 C-86.56720009 126.34978764 -86.57005422 119.81547747 -86.58063316 113.28113747 C-86.5903041 107.14073545 -86.5904002 101.00040711 -86.58311653 94.86000252 C-86.58206969 92.60696556 -86.58443944 90.35392404 -86.59047699 88.10089493 C-86.59818523 85.02531132 -86.59355983 81.94998295 -86.58584595 78.87440491 C-86.59098951 77.9833522 -86.59613307 77.09229949 -86.6014325 76.17424518 C-86.57328532 71.09509299 -85.95930566 66.95773038 -84.33860779 62.14044189 C-83.83565832 60.28707311 -83.33543943 58.43296005 -82.83860779 56.57794189 C-81.79132984 52.71843026 -80.66493327 48.91536827 -79.33860779 45.14044189 C-78.67860779 45.14044189 -78.01860779 45.14044189 -77.33860779 45.14044189 C-76.93642029 44.05762939 -76.93642029 44.05762939 -76.52610779 42.95294189 C-75.3456184 40.15704598 -73.92695125 37.72150002 -72.33860779 35.14044189 C-72.02923279 34.45981689 -71.71985779 33.77919189 -71.40110779 33.07794189 C-70.07633763 30.66218454 -68.30988321 29.04812779 -66.33860779 27.14044189 C-66.00860779 26.48044189 -65.67860779 25.82044189 -65.33860779 25.14044189 C-64.67860779 25.14044189 -64.01860779 25.14044189 -63.33860779 25.14044189 C-63.33860779 24.48044189 -63.33860779 23.82044189 -63.33860779 23.14044189 C-61.35914187 21.77680982 -59.35668329 20.44625545 -57.33860779 19.14044189 C-56.32697356 18.15221308 -55.32680573 17.15210628 -54.33860779 16.14044189 C-39.01502473 3.81495117 -19.21765723 -0.01775547 0 0 Z " fill="#70C7C9" transform="translate(141.33860778808594,65.85955810546875)"/>
<path d="M0 0 C1.63816933 -0.01908669 1.63816933 -0.01908669 3.30943298 -0.03855896 C5.0994725 -0.02877014 5.0994725 -0.02877014 6.92567444 -0.01878357 C8.81644966 -0.03170692 8.81644966 -0.03170692 10.74542236 -0.04489136 C14.20009404 -0.06739174 17.65430772 -0.0644443 21.10902476 -0.05556989 C23.9942519 -0.05045904 26.87939303 -0.05775337 29.7646113 -0.06504196 C36.57195622 -0.08204325 43.379077 -0.07847327 50.18641663 -0.06175232 C57.20643464 -0.04483178 64.2258308 -0.0606634 71.24578089 -0.0929752 C77.27566054 -0.11967713 83.30534669 -0.12694552 89.33527952 -0.11846012 C92.93548193 -0.11353238 96.53531022 -0.11573745 100.13546562 -0.13624763 C104.15056507 -0.15802669 108.1644868 -0.1391998 112.17958069 -0.11643982 C113.37091614 -0.12813202 114.56225159 -0.13982422 115.78968811 -0.15187073 C116.88462082 -0.13921677 117.97955353 -0.12656281 119.10766602 -0.11352539 C120.05652648 -0.11293908 121.00538694 -0.11235277 121.98300076 -0.1117487 C125.79887043 0.79562184 127.27080403 2.41479501 129.61732483 5.5146637 C130.24373722 8.77088928 130.24373722 8.77088928 130.24551392 12.53614807 C130.2526083 13.23109627 130.25970269 13.92604446 130.26701206 14.6420517 C130.28457845 16.96473935 130.26649652 19.28575042 130.24842834 21.6084137 C130.25356774 23.27590191 130.26084917 24.94338469 130.27011108 26.6108551 C130.28863092 31.13574831 130.275683 35.66005255 130.25602078 40.18492126 C130.23963772 44.92049345 130.2484467 49.65602823 130.25354004 54.39161682 C130.25806138 62.34418651 130.24218866 70.29652101 130.21424866 78.2490387 C130.18219655 87.44285749 130.18221235 96.63625211 130.19946343 105.83010101 C130.21532797 114.67479775 130.20859542 123.519339 130.19152641 132.36402893 C130.18465435 136.12790567 130.18568996 139.89165784 130.19307137 143.65553284 C130.20073332 148.08799247 130.18861119 152.51996947 130.16122246 156.9523468 C130.15433657 158.57891914 130.15424287 160.20553654 130.16143799 161.83210754 C130.17012997 164.05300312 130.1541836 166.27240833 130.13198853 168.49317932 C130.1291816 169.73571472 130.12637468 170.97825012 130.1234827 172.25843811 C129.52561174 176.10467429 128.36785927 177.80576025 125.61732483 180.5146637 C124.95732483 180.5146637 124.29732483 180.5146637 123.61732483 180.5146637 C124.05044983 181.06896057 124.48357483 181.62325745 124.92982483 182.1943512 C125.48669983 182.91880432 126.04357483 183.64325745 126.61732483 184.3896637 C127.17419983 185.10896057 127.73107483 185.82825745 128.30482483 186.5693512 C129.61732483 188.5146637 129.61732483 188.5146637 129.61732483 190.5146637 C130.79294983 190.4321637 131.96857483 190.3496637 133.17982483 190.2646637 C137.87790099 190.28129405 140.9823987 191.57342576 144.61732483 194.5146637 C151.85578613 202.34002727 150.95486233 215.2902787 150.86732483 225.3271637 C150.85983215 226.46790344 150.85233948 227.60864319 150.84461975 228.78395081 C150.62156483 246.31058455 147.24709807 262.14768368 140.42982483 278.2646637 C137.96238207 284.15631272 136.72918015 289.55557468 136.13685608 295.9052887 C135.55961651 298.804507 135.02610682 299.83598985 132.61732483 301.5146637 C131.62732483 301.5146637 130.63732483 301.5146637 129.61732483 301.5146637 C129.22858266 289.96038266 131.46783563 281.62738599 135.9344635 271.1084137 C140.82721874 259.45082572 143.74640961 247.90900852 143.82044983 235.2021637 C143.8261499 234.42961243 143.83184998 233.65706116 143.83772278 232.86109924 C143.84711274 231.2374964 143.85368266 229.61387501 143.8575592 227.99024963 C143.86729791 225.52148658 143.8983906 223.05354571 143.92982483 220.5849762 C143.93635344 218.99904358 143.94160447 217.41310509 143.94544983 215.8271637 C143.96397003 214.73311218 143.96397003 214.73311218 143.98286438 213.61695862 C143.95791819 207.81805802 142.57938765 203.49096207 139.34779358 198.58888245 C136.60193468 196.8843425 134.10872924 197.23274079 130.92982483 197.3271637 C129.75033264 197.35423401 128.57084045 197.38130432 127.35560608 197.40919495 C126.45197327 197.44399963 125.54834045 197.47880432 124.61732483 197.5146637 C124.27701233 195.6584137 124.27701233 195.6584137 123.92982483 193.7646637 C123.14638382 190.71734832 122.59323118 189.48631823 120.49232483 187.0146637 C116.4290158 184.89467638 114.18315544 184.93487568 109.61732483 185.5146637 C107.42955017 187.4521643 107.42955017 187.4521643 105.61732483 189.5146637 C102.86732483 189.7646637 102.86732483 189.7646637 100.61732483 189.5146637 C100.30794983 187.6893512 100.30794983 187.6893512 99.99232483 185.8271637 C99.11746362 182.40669937 98.44186772 181.31414129 95.99232483 178.5146637 C92.71120387 176.57029572 90.47621684 175.72990475 86.63710022 175.9377594 C84.12066232 176.65652439 82.79019785 177.8024316 80.86341858 179.55763245 C80.25038879 180.10830383 79.63735901 180.65897522 79.00575256 181.22633362 C78.54757141 181.65148254 78.08939026 182.07663147 77.61732483 182.5146637 C77.59750549 181.19861145 77.57768616 179.8825592 77.55726624 178.52662659 C77.48079948 173.61189165 77.39214724 168.69743702 77.29994202 163.78297424 C77.26182117 161.66193707 77.22693982 159.54083897 77.19544983 157.41969299 C77.14943039 154.35868147 77.09149883 151.29808336 77.03138733 148.23731995 C77.01983612 147.29945145 77.00828491 146.36158295 76.99638367 145.39529419 C76.82072637 137.43662997 76.62863999 129.34917547 70.61732483 123.5146637 C67.34798205 121.22612375 64.54750963 121.04304152 60.61732483 121.5146637 C55.7381914 124.00206505 53.55624798 126.41223434 51.61732483 131.5146637 C50.49279885 136.71521808 50.44641439 141.80602105 50.41200256 147.10011292 C50.40210297 148.04708542 50.39220337 148.99405792 50.38200378 149.96972656 C50.35052605 153.08624305 50.3256858 156.20277476 50.30091858 159.3193512 C50.28033719 161.48554368 50.25934041 163.65173226 50.23794556 165.81791687 C50.18284725 171.50930101 50.13338412 177.20072066 50.08509827 182.89216614 C50.03479371 188.703864 49.97915444 194.51551053 49.92396545 200.3271637 C49.81653366 211.72295314 49.71505561 223.11878722 49.61732483 234.5146637 C46.39955372 231.35363051 43.68520369 228.39195529 41.27748108 224.57325745 C40.68902405 223.65995667 40.10056702 222.74665588 39.49427795 221.80567932 C38.28399503 219.90231726 37.07826388 217.99605328 35.87709045 216.08692932 C32.61491121 211.04213847 30.0629394 207.21452598 24.61732483 204.5146637 C20.34333701 203.91480576 18.4104494 204.01465038 14.74232483 206.3271637 C11.3012518 209.86944475 11.02813223 213.6497992 11.08998108 218.4052887 C12.13032621 224.53947185 15.43499517 229.86060591 18.39808655 235.25831604 C19.66357628 237.60025759 20.86619393 239.96684482 22.05873108 242.34669495 C27.94707998 254.01681629 34.3877873 263.9919659 43.30482483 273.6396637 C52.13011848 283.45586751 54.37200855 289.85667961 53.82826233 302.9287262 C53.75865295 304.11208557 53.68904358 305.29544495 53.61732483 306.5146637 C51.96732483 306.5146637 50.31732483 306.5146637 48.61732483 306.5146637 C48.57865295 305.13794495 48.57865295 305.13794495 48.53919983 303.7334137 C48.48248108 302.5062262 48.42576233 301.2790387 48.36732483 300.0146637 C48.32091858 298.8081012 48.27451233 297.6015387 48.22669983 296.3584137 C47.0152911 288.71722015 43.10295708 283.48412331 37.99232483 277.8896637 C28.04927174 266.52768395 20.53436078 254.89185884 13.61732483 241.5146637 C13.28372955 240.87020294 12.95013428 240.22574219 12.60643005 239.56175232 C1.84583948 218.6755015 1.84583948 218.6755015 5.26966858 207.3584137 C7.55669192 202.88252252 11.03162527 199.49743284 15.61732483 197.5146637 C20.79599289 196.47555086 25.19215128 196.88651249 29.80482483 199.5146637 C35.36706116 203.47479544 39.57719848 208.434411 42.61732483 214.5146637 C42.94732483 203.6246637 43.27732483 192.7346637 43.61732483 181.5146637 C38.50683655 181.60167542 38.50683655 181.60167542 33.29310608 181.69044495 C29.99015124 181.72944843 26.68722214 181.75980296 23.38417053 181.7893219 C21.09010825 181.81445298 18.79612593 181.84856338 16.50233459 181.89186096 C13.20322433 181.95257202 9.90517336 181.98088807 6.60560608 182.00294495 C5.06940361 182.04165459 5.06940361 182.04165459 3.50216675 182.08114624 C2.54154831 182.0815239 1.58092987 182.08190155 0.59120178 182.08229065 C-0.25041 182.09339371 -1.09202179 182.10449677 -1.95913696 182.11593628 C-5.59012658 181.21509861 -7.03158314 179.37642323 -9.38267517 176.5146637 C-10.00908756 173.22441006 -10.00908756 173.22441006 -10.01086426 169.41052246 C-10.01795865 168.70670159 -10.02505303 168.00288073 -10.0323624 167.27773196 C-10.04993075 164.92507864 -10.03184579 162.57408009 -10.01377869 160.22145081 C-10.01891796 158.53263599 -10.02619929 156.84382653 -10.03546143 155.1550293 C-10.05398142 150.57235642 -10.04103378 145.99026507 -10.02137113 141.40761638 C-10.0049909 136.61285263 -10.01379652 131.81812589 -10.01889038 127.02334595 C-10.0234116 118.97242436 -10.00753865 110.92173509 -9.979599 102.87086487 C-9.94753608 93.5600122 -9.94756694 84.24957829 -9.96481377 74.93869585 C-9.98067044 65.9840055 -9.97395155 57.02946884 -9.95687675 48.07478523 C-9.95000023 44.26263405 -9.95104483 40.45060583 -9.95842171 36.63845634 C-9.96607587 32.15100989 -9.95398709 27.66404081 -9.9265728 23.1766758 C-9.91967912 21.52872001 -9.91960152 19.88071973 -9.92678833 18.2327652 C-9.93546137 15.98524903 -9.91956611 13.73921347 -9.89733887 11.49182129 C-9.89453195 10.23361541 -9.89172503 8.97540953 -9.88883305 7.67907619 C-9.38267517 4.5146637 -9.38267517 4.5146637 -7.68692589 2.11075783 C-4.8897871 0.17325304 -3.38400253 0.01001454 0 0 Z " fill="#6FC6C8" transform="translate(273.38267517089844,138.48533630371094)"/>
<path d="M0 0 C5.49337392 4.53800454 7.1439512 8.41388181 7.875 15.375 C8.05498068 18.81035027 8.12935506 22.2443051 8.19140625 25.68359375 C8.21218735 26.65031509 8.23296844 27.61703644 8.25437927 28.61305237 C8.31938991 31.67946758 8.37853277 34.74596322 8.4375 37.8125 C8.4807314 39.9003987 8.52434712 41.98828949 8.56835938 44.07617188 C8.67502115 49.17570033 8.77642309 54.27530911 8.875 59.375 C9.26244385 58.95057617 9.6498877 58.52615234 10.04907227 58.08886719 C10.57041748 57.53875977 11.0917627 56.98865234 11.62890625 56.421875 C12.1401001 55.87370117 12.65129395 55.32552734 13.17797852 54.76074219 C15.64995597 52.74219176 17.72360809 52.54542713 20.84375 52.7734375 C24.62890235 53.89442493 27.28587951 56.47818693 29.875 59.375 C31.22939668 62.08379335 30.94001451 64.38433268 30.875 67.375 C35.02151228 66.33172557 35.02151228 66.33172557 38.25 63.75 C40.57967693 61.77873491 42.84070441 61.84687764 45.8046875 61.9453125 C49.4700674 62.70605172 51.29152635 64.7285148 53.875 67.375 C55.22939668 70.08379335 54.94001451 72.38433268 54.875 75.375 C55.75542969 75.24480469 56.63585937 75.11460937 57.54296875 74.98046875 C67.0634058 73.84985081 67.0634058 73.84985081 71.0625 76.4375 C74.44775516 81.92394801 75.18394404 86.95473943 75.17578125 93.30859375 C75.18006638 94.06358658 75.1843515 94.81857941 75.18876648 95.59645081 C75.19448917 97.19246423 75.19502529 98.78850373 75.19067383 100.38452148 C75.1875498 102.7744059 75.2108713 105.16300594 75.23632812 107.55273438 C75.30299047 122.50664076 72.71731344 135.2870021 66.8125 149.125 C62.40148432 159.92796981 60.18350033 169.73612382 59.875 181.375 C59.11574219 181.49617187 58.35648437 181.61734375 57.57421875 181.7421875 C56.58035156 181.90976562 55.58648437 182.07734375 54.5625 182.25 C53.57636719 182.41242188 52.59023438 182.57484375 51.57421875 182.7421875 C48.67440173 183.25585454 48.67440173 183.25585454 45.875 185.375 C44.885 185.045 43.895 184.715 42.875 184.375 C41.00685334 184.60825432 39.13914722 184.84621551 37.27514648 185.11056519 C32.58456968 185.6273469 27.86959586 185.49577194 23.15625 185.47265625 C21.508526 185.47053383 21.508526 185.47053383 19.82751465 185.46836853 C16.34331457 185.46280257 12.85918042 185.45025639 9.375 185.4375 C7.0026051 185.4324806 4.63020918 185.42791846 2.2578125 185.42382812 C-3.53648056 185.4128443 -9.33073557 185.3961403 -15.125 185.375 C-15.21044067 183.83888062 -15.21044067 183.83888062 -15.29760742 182.27172852 C-15.3791327 180.91160537 -15.46093444 179.55149878 -15.54296875 178.19140625 C-15.57966675 177.51839478 -15.61636475 176.8453833 -15.6541748 176.15197754 C-16.35963181 164.75693563 -21.35107478 158.40043176 -28.76171875 150.2578125 C-36.52710841 141.48540101 -42.66220019 132.23608768 -48.04785156 121.89135742 C-49.01115434 120.04107509 -49.98860932 118.198832 -50.96875 116.35742188 C-60.29851475 98.71554305 -60.29851475 98.71554305 -59.125 89.375 C-57.55710207 85.69043987 -55.68788354 83.25541076 -52.125 81.375 C-48.74543858 80.79007591 -46.36156366 80.7277794 -43.26806641 82.34692383 C-37.0805548 86.73808653 -33.60402495 92.17643538 -29.75 98.625 C-28.53576353 100.61054391 -27.31970647 102.59497596 -26.1015625 104.578125 C-25.57643066 105.45114258 -25.05129883 106.32416016 -24.51025391 107.22363281 C-23.17134757 109.46979411 -23.17134757 109.46979411 -21.125 111.375 C-21.11691315 110.19229019 -21.10882629 109.00958038 -21.10049438 107.79103088 C-21.02288052 96.62418604 -20.93510301 85.45746074 -20.83747292 74.29077244 C-20.78760897 68.55039939 -20.74127815 62.81004386 -20.703125 57.06958008 C-20.66614703 51.52574957 -20.61975336 45.98206928 -20.56693649 40.43836784 C-20.54845891 38.32739851 -20.53332669 36.21639705 -20.52165604 34.1053791 C-20.50467968 31.13984038 -20.47561771 28.17464073 -20.44384766 25.20922852 C-20.44168747 24.3439151 -20.43952728 23.47860168 -20.43730164 22.58706665 C-20.3181853 13.83612619 -19.57378816 6.67024559 -13.125 0.375 C-8.78141681 -2.70754291 -4.62060272 -2.40271341 0 0 Z " fill="#0C2825" transform="translate(343.125,260.625)"/>
<path d="M0 0 C1.15553375 -0.00700928 2.3110675 -0.01401855 3.50161743 -0.02124023 C7.30617594 -0.03878701 11.10998521 -0.02720676 14.91455078 -0.01367188 C17.56959957 -0.01636809 20.224626 -0.02024618 22.87966919 -0.02526855 C28.43939253 -0.03252998 33.99890282 -0.02299926 39.55859375 -0.00390625 C45.96392363 0.01783842 52.36874365 0.01082301 58.77406108 -0.01121187 C64.29454687 -0.02943482 69.81488021 -0.03189012 75.3353864 -0.0214572 C78.62321416 -0.01525708 81.9107533 -0.01588576 85.19857407 -0.02760315 C88.86970712 -0.03781444 92.53987585 -0.02220072 96.2109375 0 C97.284505 -0.00809692 98.35807251 -0.01619385 99.46417236 -0.02453613 C107.45561957 0.06454317 114.51793817 1.52077263 120.85595703 6.63085938 C121.45537109 7.35660156 122.05478516 8.08234375 122.67236328 8.83007812 C123.59855469 9.90708984 123.59855469 9.90708984 124.54345703 11.00585938 C129.681748 18.63616213 129.70250667 25.22787675 129.74658203 34.26367188 C129.76365376 35.69707578 129.78187027 37.13046642 129.80111694 38.56384277 C129.84997293 42.52480559 129.87922114 46.48570623 129.90462112 50.44688034 C129.92844727 53.81516847 129.96325302 57.18331181 129.99753857 60.551507 C130.52728731 113.53540633 130.32437859 166.53181983 130.23486328 219.51757812 C128.45402093 219.42541057 126.67418699 219.31359863 124.89501953 219.19335938 C123.40820679 219.10308472 123.40820679 219.10308472 121.89135742 219.01098633 C119.23486328 218.51757812 119.23486328 218.51757812 116.67236328 215.70507812 C116.19798828 214.65320313 115.72361328 213.60132813 115.23486328 212.51757812 C114.61611328 211.34195313 114.61611328 211.34195313 113.98486328 210.14257812 C113.73736328 209.60632813 113.48986328 209.07007813 113.23486328 208.51757812 C114.45292868 207.49751348 114.45292868 207.49751348 115.69560146 206.45684147 C118.82461117 202.8349292 118.86082495 201.21474646 118.86305237 196.48936462 C118.87014676 195.79371086 118.87724114 195.0980571 118.88455051 194.38132292 C118.90211688 192.05630186 118.88403506 189.73295569 118.8659668 187.40795898 C118.87110615 185.73884826 118.87838754 184.06974296 118.88764954 182.40065002 C118.90616853 177.87169203 118.89322256 173.34332251 118.87355924 168.81438899 C118.8571782 164.0756796 118.86598474 159.33700764 118.87107849 154.59828186 C118.87559962 146.64151605 118.85972735 138.68498532 118.83178711 130.72827148 C118.7997241 121.52648043 118.79975512 112.3251131 118.81700188 103.12329191 C118.83285887 94.27325239 118.82613946 85.42336836 118.80906487 76.57333565 C118.80218857 72.80584136 118.8032327 69.03847149 118.81060982 65.27097893 C118.81826431 60.83605993 118.80617415 56.40162393 118.77876091 51.96678734 C118.77186759 50.33818241 118.77178926 48.70953246 118.77897644 47.0809288 C118.78765037 44.85968081 118.77175289 42.63993057 118.74952698 40.41880798 C118.74672006 39.17535079 118.74391314 37.9318936 118.74102116 36.65075588 C118.46190813 33.46623571 118.46190813 33.46623571 116.53995514 31.1175766 C113.73601721 29.17132166 112.23301702 29.01711959 108.83872986 29.01637268 C107.74372665 29.00653854 106.64872345 28.99670441 105.52053833 28.98657227 C104.32403656 28.99624023 103.12753479 29.0059082 101.89477539 29.01586914 C100.63104599 29.01046616 99.36731659 29.00506317 98.06529236 28.99949646 C94.60245356 28.98553863 91.14011142 28.99671274 87.67730021 29.01320767 C84.05387022 29.02705929 80.43046901 29.02059809 76.80702209 29.01707458 C70.72323603 29.01437288 64.63964731 29.02784564 58.5559082 29.05102539 C51.52007642 29.07764698 44.48457433 29.07937838 37.44870943 29.06763703 C30.68156393 29.05686279 23.91453782 29.0630427 17.14740181 29.07719231 C14.26665999 29.08295403 11.38600549 29.08286803 8.50526237 29.07812691 C4.48517737 29.07247416 0.46558606 29.0916625 -3.55444336 29.11352539 C-5.35223236 29.10677292 -5.35223236 29.10677292 -7.18634033 29.09988403 C-8.27852371 29.10978867 -9.37070709 29.1196933 -10.49598694 29.12989807 C-11.44669099 29.13232797 -12.39739504 29.13475786 -13.3769083 29.13726139 C-15.76807097 29.36384024 -15.76807097 29.36384024 -17.57022858 30.61283112 C-19.39180758 33.51652475 -19.14624997 35.97490252 -19.15281677 39.38121033 C-19.15820231 40.08332234 -19.16358785 40.78543436 -19.16913658 41.5088225 C-19.18347242 43.86730543 -19.17629888 46.22523153 -19.16918945 48.58374023 C-19.17489011 50.27225701 -19.18185319 51.96076993 -19.18998718 53.64927673 C-19.2079677 58.24018566 -19.20674102 62.83090397 -19.2010448 67.42183757 C-19.19795991 71.25151598 -19.2040376 75.0811574 -19.21008354 78.91083056 C-19.22414331 87.94408419 -19.22255551 96.97724329 -19.21118164 106.01049805 C-19.19969935 115.33605677 -19.21377464 124.66132795 -19.24057811 133.98684877 C-19.26271518 141.98777545 -19.26937699 149.98861173 -19.2635017 157.98956686 C-19.26012609 162.77066623 -19.26258714 167.55158127 -19.27975273 172.33265495 C-19.29518805 176.82824435 -19.29130451 181.32340694 -19.27244759 185.81897926 C-19.26875217 187.47017204 -19.27189784 189.12139619 -19.28233337 190.77256012 C-19.29548079 193.02452353 -19.28405342 195.27506089 -19.26634216 197.52696228 C-19.26613288 198.7877658 -19.2659236 200.04856932 -19.26570797 201.347579 C-18.67549704 205.08524497 -17.7480974 206.26475474 -14.76513672 208.51757812 C-12.43955838 209.12610225 -12.43955838 209.12610225 -9.90478516 209.06347656 C-8.94409119 209.08319519 -7.98339722 209.10291382 -6.99359131 209.12322998 C-5.96429504 209.12445862 -4.93499878 209.12568726 -3.87451172 209.12695312 C-2.81476135 209.14348938 -1.75501099 209.16002563 -0.66314697 209.17706299 C2.71958159 209.22562367 6.10186033 209.24693249 9.48486328 209.26757812 C11.77915684 209.29573095 14.07342938 209.3256574 16.36767578 209.35742188 C21.99028018 209.43472251 27.61145409 209.47516931 33.23486328 209.51757812 C33.23486328 220.73757813 33.23486328 231.95757812 33.23486328 243.51757812 C30.93284648 241.21556133 29.21701042 239.19514207 27.35986328 236.58007812 C23.64508486 231.56880525 19.28515514 227.16209693 12.90283203 226.14648438 C7.46071173 226.00078982 3.86307683 226.46926782 -0.36279297 230.04882812 C-5.39539704 235.31974492 -5.40818615 241.60012233 -5.76513672 248.51757812 C-14.22620056 246.66285641 -21.36822326 243.47107246 -26.40185547 236.13085938 C-27.62272866 233.9584747 -28.73125209 231.78381632 -29.76513672 229.51757812 C-30.09513672 228.85757813 -30.42513672 228.19757813 -30.76513672 227.51757812 C-30.86957136 224.84461058 -30.91293254 222.19731705 -30.91230774 219.52380371 C-30.91598443 218.68793873 -30.91966112 217.85207376 -30.92344922 216.99087954 C-30.93451357 214.17360108 -30.93833461 211.35635947 -30.94213867 208.5390625 C-30.94840143 206.52546063 -30.95504806 204.51185993 -30.96205139 202.4982605 C-30.97948283 197.01441533 -30.9900198 191.5305789 -30.99825692 186.04671288 C-31.00340437 182.62037885 -31.00948034 179.19404756 -31.01576805 175.76771545 C-31.03482931 165.04733741 -31.04905635 154.32696628 -31.05738002 143.60657454 C-31.06714558 131.23302281 -31.09344349 118.8596503 -31.13388091 106.48616171 C-31.1640592 96.92340999 -31.17885068 87.36070957 -31.18216103 77.79791117 C-31.18451028 72.08656275 -31.19345412 66.37540559 -31.21862221 60.66410828 C-31.24193659 55.28623429 -31.24612248 49.90867699 -31.23586082 44.53076553 C-31.23536612 42.56118338 -31.24166733 40.59158546 -31.25541687 38.62205124 C-31.40109821 16.50914264 -31.40109821 16.50914264 -23.51513672 7.64257812 C-16.56116116 0.79187943 -9.28856031 -0.06979181 0 0 Z " fill="#0B2724" transform="translate(283.76513671875,110.482421875)"/>
<path d="M0 0 C4.67152884 2.39805147 7.84019182 6.19018706 10.9453125 10.33984375 C11.5021875 11.08234375 12.0590625 11.82484375 12.6328125 12.58984375 C17.51545055 22.82013299 17.5476237 33.23183522 16.9453125 44.33984375 C16.4503125 45.32984375 16.4503125 45.32984375 15.9453125 46.33984375 C14.92525224 60.18351867 16.26957847 71.48616883 25.3671875 82.60546875 C31.29626035 89.12157851 37.97358109 92.64850014 45.9453125 96.33984375 C46.0703125 99.21484375 46.0703125 99.21484375 45.9453125 102.33984375 C43.9453125 104.33984375 43.9453125 104.33984375 41.0703125 104.90234375 C31.85055012 104.57648936 23.28492661 96.54643857 17.2734375 90.234375 C12.16849992 83.88746435 8.53283159 76.6225075 4.9453125 69.33984375 C3.43959504 71.46099334 1.94062571 73.5863799 0.4453125 75.71484375 C0.01605469 76.318125 -0.41320312 76.92140625 -0.85546875 77.54296875 C-3.25723237 80.64382304 -3.25723237 80.64382304 -4.0546875 84.33984375 C-3.1678125 84.73171875 -2.2809375 85.12359375 -1.3671875 85.52734375 C3.1817518 88.01638601 6.28611083 91.62946111 9.78515625 95.390625 C16.27974604 102.28896372 22.53110597 107.37763423 30.94921875 111.75390625 C33.51289429 113.11094963 35.69501857 114.52420317 37.9453125 116.33984375 C37.1953125 122.08984375 37.1953125 122.08984375 34.9453125 124.33984375 C22.64739615 124.60150154 11.44334925 112.18951382 2.9453125 104.33984375 C1.61890305 102.9992985 0.30293664 101.64813807 -0.9921875 100.27734375 C-4.7318052 96.42497375 -8.39640472 94.77518571 -13.75 93.8984375 C-18.67395641 94.55612908 -21.54528897 97.30905497 -25.3671875 100.33984375 C-35.70236021 108.16790635 -48.86780977 116.57994089 -62.0546875 118.33984375 C-66.70678834 117.68774291 -66.70678834 117.68774291 -68.0546875 116.33984375 C-68.4921875 113.52734375 -68.4921875 113.52734375 -68.0546875 110.33984375 C-63.90931515 107.05387786 -59.57523203 105.30482178 -54.6171875 103.65234375 C-41.52773551 98.98536523 -31.06381223 91.94567041 -21.0546875 82.33984375 C-19.85298384 81.35255194 -18.64520515 80.37257757 -17.4296875 79.40234375 C-5.81523151 69.4782546 4.4774389 53.61578189 6.4609375 38.37890625 C7.01575148 29.38812957 5.31476257 21.76594098 -0.0546875 14.33984375 C-2.72978417 11.9380379 -3.86966283 11.3734846 -7.4921875 10.71484375 C-11.31141925 10.99383609 -11.31141925 10.99383609 -13.60546875 14.34375 C-16.26378896 18.31238232 -17.52049987 22.34111051 -18.8046875 26.90234375 C-24.95041527 46.74978843 -38.73616047 61.92756276 -56.8359375 71.8671875 C-65.39224556 76.00693067 -75.53144976 80.55857085 -85.0546875 78.33984375 C-85.6796875 74.96484375 -85.6796875 74.96484375 -86.0546875 71.33984375 C-83.36957626 68.65473251 -80.3614221 68.15482427 -76.8046875 67.15234375 C-64.05414348 63.32343801 -53.45629317 57.99554687 -44.0546875 48.33984375 C-43.43207031 47.74945313 -42.80945313 47.1590625 -42.16796875 46.55078125 C-34.66537266 38.89644727 -30.05208892 28.02099733 -26.9296875 17.90234375 C-24.79196592 11.01100444 -21.58985617 5.7570976 -16.3671875 0.77734375 C-11.06764752 -1.52245662 -5.54373188 -1.781161 0 0 Z " fill="#0C2825" transform="translate(175.0546875,192.66015625)"/>
<path d="M0 0 C4.20557271 3.0781213 5.99658723 7.68690029 7.625 12.5 C8.10718858 15.73075165 8.09687676 18.86823336 8.015625 22.12890625 C8.00996521 23.00401352 8.00430542 23.87912079 7.99847412 24.78074646 C7.97630435 27.54191706 7.92614771 30.30172993 7.875 33.0625 C7.8549098 34.9485488 7.83666347 36.8346182 7.8203125 38.72070312 C7.77650368 43.31431534 7.70761491 47.9069285 7.625 52.5 C8.285 52.17 8.945 51.84 9.625 51.5 C14.2194229 50.93948041 17.69740876 51.03620438 21.875 53.125 C24.88695035 55.72622985 27.19529857 58.35568051 29.625 61.5 C30.305625 61.335 30.98625 61.17 31.6875 61 C38.74268997 59.7991166 43.73419681 60.45777522 49.625 64.5 C51.63528333 66.40345668 53.02675786 68.20252692 54.625 70.5 C54.625 71.16 54.625 71.82 54.625 72.5 C55.800625 72.4175 56.97625 72.335 58.1875 72.25 C62.88557616 72.26663036 65.99007387 73.55876206 69.625 76.5 C76.8634613 84.32536357 75.9625375 97.27561501 75.875 107.3125 C75.86750732 108.45323975 75.86001465 109.59397949 75.85229492 110.76928711 C75.62924 128.29592086 72.25477324 144.13301998 65.4375 160.25 C62.97005725 166.14164903 61.73685532 171.54091098 61.14453125 177.890625 C60.56729168 180.7898433 60.03378199 181.82132616 57.625 183.5 C56.635 183.5 55.645 183.5 54.625 183.5 C54.23625783 171.94571896 56.4755108 163.61272229 60.94213867 153.09375 C65.83489391 141.43616202 68.75408479 129.89434483 68.828125 117.1875 C68.83382507 116.41494873 68.83952515 115.64239746 68.84539795 114.84643555 C68.85478791 113.2228327 68.86135783 111.59921131 68.86523438 109.97558594 C68.87497309 107.50682288 68.90606577 105.03888201 68.9375 102.5703125 C68.94402861 100.98437989 68.94927964 99.39844139 68.953125 97.8125 C68.9716452 96.71844849 68.9716452 96.71844849 68.99053955 95.60229492 C68.96559336 89.80339432 67.58706282 85.47629837 64.35546875 80.57421875 C61.60960985 78.8696788 59.11640441 79.2180771 55.9375 79.3125 C54.75800781 79.33957031 53.57851563 79.36664063 52.36328125 79.39453125 C51.00783203 79.44673828 51.00783203 79.44673828 49.625 79.5 C49.398125 78.2625 49.17125 77.025 48.9375 75.75 C48.15405899 72.70268462 47.60090635 71.47165453 45.5 69 C41.43669097 66.88001268 39.19083061 66.92021199 34.625 67.5 C32.43722534 69.4375006 32.43722534 69.4375006 30.625 71.5 C27.875 71.75 27.875 71.75 25.625 71.5 C25.315625 69.6746875 25.315625 69.6746875 25 67.8125 C24.12513879 64.39203568 23.44954289 63.29947759 21 60.5 C17.71887904 58.55563202 15.48389201 57.71524106 11.64477539 57.9230957 C9.12833749 58.64186069 7.79787302 59.7877679 5.87109375 61.54296875 C5.25806396 62.09364014 4.64503418 62.64431152 4.01342773 63.21166992 C3.55524658 63.63681885 3.09706543 64.06196777 2.625 64.5 C2.595271 62.52592163 2.595271 62.52592163 2.56494141 60.51196289 C2.48847465 55.59722795 2.39982241 50.68277332 2.30761719 45.76831055 C2.26949635 43.64727338 2.23461499 41.52617527 2.203125 39.4050293 C2.15710556 36.34401777 2.099174 33.28341966 2.0390625 30.22265625 C2.02751129 29.28478775 2.01596008 28.34691925 2.00405884 27.38063049 C1.82840155 19.42196627 1.63631516 11.33451177 -4.375 5.5 C-7.64434278 3.21146006 -10.4448152 3.02837782 -14.375 3.5 C-19.25413343 5.98740135 -21.43607685 8.39757065 -23.375 13.5 C-24.49952597 18.70055439 -24.54591044 23.79135735 -24.58032227 29.08544922 C-24.59022186 30.03242172 -24.60012146 30.97939423 -24.61032104 31.95506287 C-24.64179878 35.07157936 -24.66663903 38.18811107 -24.69140625 41.3046875 C-24.71198764 43.47087999 -24.73298442 45.63706857 -24.75437927 47.80325317 C-24.80947758 53.49463732 -24.85894071 59.18605697 -24.90722656 64.87750244 C-24.95753112 70.6892003 -25.01317039 76.50084683 -25.06835938 82.3125 C-25.17579117 93.70828944 -25.27726922 105.10412352 -25.375 116.5 C-28.5927711 113.33896681 -31.30712114 110.37729159 -33.71484375 106.55859375 C-34.30330078 105.64529297 -34.89175781 104.73199219 -35.49804688 103.79101562 C-36.7083298 101.88765357 -37.91406095 99.98138958 -39.11523438 98.07226562 C-42.37741362 93.02747477 -44.92938542 89.19986228 -50.375 86.5 C-54.64898782 85.90014206 -56.58187543 85.99998669 -60.25 88.3125 C-63.69107303 91.85478106 -63.9641926 95.6351355 -63.90234375 100.390625 C-62.86199862 106.52480816 -59.55732966 111.84594222 -56.59423828 117.24365234 C-55.32874855 119.58559389 -54.1261309 121.95218112 -52.93359375 124.33203125 C-47.04524485 136.00215259 -40.60453753 145.97730221 -31.6875 155.625 C-22.86220635 165.44120381 -20.62031628 171.84201591 -21.1640625 184.9140625 C-21.23367188 186.09742188 -21.30328125 187.28078125 -21.375 188.5 C-23.025 188.5 -24.675 188.5 -26.375 188.5 C-26.40078125 187.5821875 -26.4265625 186.664375 -26.453125 185.71875 C-26.53820312 183.87796875 -26.53820312 183.87796875 -26.625 182 C-26.67140625 180.7934375 -26.7178125 179.586875 -26.765625 178.34375 C-27.97703373 170.70255645 -31.88936775 165.46945961 -37 159.875 C-46.94305309 148.51302025 -54.45796405 136.87719514 -61.375 123.5 C-61.70859528 122.85553925 -62.04219055 122.21107849 -62.38589478 121.54708862 C-73.14648535 100.6608378 -73.14648535 100.6608378 -69.72265625 89.34375 C-67.43563291 84.86785882 -63.96069956 81.48276914 -59.375 79.5 C-54.19633194 78.46088716 -49.80017355 78.87184879 -45.1875 81.5 C-39.15725127 85.81780487 -34.03827586 91.10766285 -32.375 98.5 C-31.715 98.5 -31.055 98.5 -30.375 98.5 C-30.39165459 96.93597946 -30.39165459 96.93597946 -30.40864563 95.34036255 C-30.51028201 85.48375819 -30.58508992 75.62726103 -30.63406086 65.77025032 C-30.66008442 60.70338111 -30.69534946 55.63693707 -30.75219727 50.5703125 C-30.80677622 45.67491387 -30.83647493 40.77992257 -30.84938622 35.88424301 C-30.85857982 34.02241484 -30.87653248 32.16060738 -30.90365028 30.29895401 C-31.19248166 9.63691718 -31.19248166 9.63691718 -23.53120422 1.55496216 C-16.79369343 -4.78566853 -7.7639089 -5.24863504 0 0 Z " fill="#F5F8F8" transform="translate(348.375,256.5)"/>
<path d="M0 0 C3.6542104 2.36633682 6.83494664 5.0172272 10 8 C10.93779297 8.85851562 10.93779297 8.85851562 11.89453125 9.734375 C23.26593337 21.33679883 28.18781854 38.20428482 28.25 54.0625 C28.19687245 58.21087608 27.81530127 61.94857983 27 66 C25.96979833 77.25391053 25.96979833 77.25391053 30.16015625 87.3515625 C33.94272995 90.74062004 38.4653817 92.80116663 43 95 C43.33 95.33 43.66 95.66 44 96 C43.6875 99.5 43.6875 99.5 43 103 C40.05124123 104.47437939 38.30820503 104.36089509 35 104 C26.99546328 100.88550753 20.68645138 95.17166434 17.125 87.3125 C14.55729211 79.75202677 13.70948629 71.35548377 16 63.625 C19.81214495 49.80597454 15.50038167 36.4316653 8.95703125 24.24609375 C4.61726501 17.04779884 -1.65285385 10.95502814 -9.8515625 8.4296875 C-16.68436162 7.06312768 -23.12365441 7.00662388 -29.3125 10.4375 C-39.14977243 17.16411004 -43.42791066 26.85375318 -46.8125 37.875 C-51.41556782 52.00785667 -61.38934914 63.37835663 -74 71 C-81.24545115 74.56234682 -87.88705725 77.06399249 -96 76 C-98 73 -98 73 -98.0625 70.5 C-97 68 -97 68 -94 66.375 C-91.96846256 65.62457494 -89.9279287 64.97864069 -87.8515625 64.36328125 C-79.56575617 61.84846635 -72.75336285 57.53084432 -67 51 C-66.53078125 50.49597656 -66.0615625 49.99195313 -65.578125 49.47265625 C-61.4457337 44.60538093 -59.43333379 39.21620453 -57.31616211 33.28369141 C-52.07765162 18.70770058 -45.22986982 5.71283966 -31.2421875 -1.96484375 C-21.31977626 -6.46936936 -9.51332874 -4.63937676 0 0 Z " fill="#0C2825" transform="translate(185,174)"/>
<path d="M0 0 C13.15980074 11.17875547 22.32145021 26.21657397 26.41796875 42.97265625 C26.76472656 44.12765625 27.11148438 45.28265625 27.46875 46.47265625 C28.86910839 52.12280936 28.80007148 57.80559016 28.79296875 63.59765625 C28.79353271 64.74741943 28.79409668 65.89718262 28.79467773 67.08178711 C28.53919832 86.85142668 28.53919832 86.85142668 23.41796875 91.97265625 C20.48046875 92.22265625 20.48046875 92.22265625 17.41796875 91.97265625 C15.14836028 88.56824354 15.25031137 87.86019552 15.73046875 83.97265625 C15.82972656 83.10640625 15.92898437 82.24015625 16.03125 81.34765625 C16.41796875 78.97265625 16.41796875 78.97265625 17.41796875 75.97265625 C18.93544011 54.26643994 15.60275667 35.70568496 2.41796875 17.97265625 C1.8971875 17.24304688 1.37640625 16.5134375 0.83984375 15.76171875 C-6.91333417 5.8548803 -19.36943447 -0.74221102 -31.58203125 -3.02734375 C-44.70829281 -4.61992976 -56.28698789 -0.03459969 -66.58203125 7.97265625 C-75.66522108 16.28825257 -80.88545344 26.77578554 -85.08203125 38.16015625 C-89.10673699 49.02180981 -95.34309278 58.76841229 -106.20703125 63.84765625 C-109.31192758 64.88262169 -111.36524462 65.52410539 -114.58203125 64.97265625 C-116.58203125 61.97265625 -116.58203125 61.97265625 -116.5 59.49609375 C-115.30033668 56.19829587 -113.8600914 55.41511464 -110.89453125 53.59765625 C-102.38790251 48.35685008 -98.70871764 41.83049822 -95.14453125 32.72265625 C-87.28561083 13.66321428 -75.75939173 -2.40011023 -56.39453125 -10.90234375 C-36.3861721 -19.16845108 -16.22797451 -12.74178332 0 0 Z " fill="#0C2826" transform="translate(204.58203125,163.02734375)"/>
<path d="M0 0 C2.47306793 2.16987053 4.85954515 4.39074205 7.20703125 6.6953125 C7.77808594 7.25347656 8.34914062 7.81164062 8.9375 8.38671875 C11.29170109 10.91237426 12.17986394 12.4934982 12.64453125 15.9453125 C12.20703125 18.6953125 12.20703125 18.6953125 10.20703125 20.6953125 C7.95703125 21.1953125 7.95703125 21.1953125 5.20703125 20.6953125 C3.02460309 18.75010479 1.14680642 16.85772365 -0.79296875 14.6953125 C-12.05210382 2.84426861 -27.27128846 -6.07218778 -43.96875 -6.578125 C-65.72930881 -7.08881928 -81.21382826 -2.93239459 -97.453125 12.33203125 C-108.14106592 23.12703001 -114.78417824 35.96752689 -119.78515625 50.18359375 C-120.79296875 52.6953125 -120.79296875 52.6953125 -122.79296875 54.6953125 C-125.29296875 54.9453125 -125.29296875 54.9453125 -127.79296875 54.6953125 C-129.79296875 52.6953125 -129.79296875 52.6953125 -130.23046875 49.3203125 C-130.04485145 43.23861624 -127.39167485 38.09456596 -124.79296875 32.6953125 C-124.50357422 32.09203125 -124.21417969 31.48875 -123.91601562 30.8671875 C-113.45609284 9.36993643 -96.79446101 -7.22099804 -73.96875 -15.33984375 C-48.3985375 -23.10840769 -20.42140496 -16.85122927 0 0 Z " fill="#0C2826" transform="translate(217.79296875,146.3046875)"/>
<path d="M0 0 C1.62524363 1.62524363 1.40458685 3.30803775 1.5625 5.5625 C1.43010851 18.28863244 -7.70589985 30.10221535 -16 39 C-16.44859375 39.48952148 -16.8971875 39.97904297 -17.359375 40.48339844 C-30.9779183 55.23370255 -50.64989794 69.6528156 -71.3203125 71.2578125 C-74 71 -74 71 -76 69 C-76.375 66.0625 -76.375 66.0625 -76 63 C-73.01502362 60.14941829 -69.92606638 59.21236642 -66 58.125 C-43.42746744 51.38092115 -26.17716399 38.43164471 -14 18 C-11.57649017 13.02884934 -9.61171255 8.00175195 -7.99609375 2.71484375 C-6.31577602 -1.86484574 -4.23218879 -1.08517661 0 0 Z " fill="#0C2825" transform="translate(172,221)"/>
<path d="M0 0 C9.94329499 7.99936362 15.45476191 18.44341317 17 31 C17.07689501 33.34141176 17.10806803 35.6846928 17.09765625 38.02734375 C17.09282227 39.95610352 17.09282227 39.95610352 17.08789062 41.92382812 C17.07953802 43.26171945 17.07107311 44.59961007 17.0625 45.9375 C17.05747659 47.30273274 17.05291517 48.66796726 17.04882812 50.03320312 C17.03708851 53.35551457 17.02066679 56.67773408 17 60 C15.125 60.625 15.125 60.625 13 61 C10.42480481 58.42480481 10.73764959 57.37244505 10.69140625 53.79296875 C10.66860596 52.73730713 10.64580566 51.68164551 10.62231445 50.59399414 C10.60257568 49.46985107 10.58283691 48.34570801 10.5625 47.1875 C10.10020142 31.95319916 8.90840158 18.44059965 -2.5625 7.1875 C-11.78774961 -0.19970177 -22.44498166 -2.26054746 -34 -1 C-44.30798335 0.91411563 -53.07875831 7.49442741 -59 16 C-62.4585405 22.11144451 -65.34271766 28.50442094 -68 35 C-69.32 34.67 -70.64 34.34 -72 34 C-73.94583039 27.37928151 -70.91238052 21.93544534 -68 16 C-61.05383158 5.24172613 -50.66829596 -4.57341857 -38.1875 -8.3125 C-24.4580079 -11.1455698 -11.49566079 -7.70453861 0 0 Z " fill="#F8FCFC" transform="translate(362,176)"/>
<path d="M0 0 C5.09137704 0.53485173 7.11854381 2.49064537 10.7421875 5.90625 C11.35223633 6.45434326 11.96228516 7.00243652 12.59082031 7.56713867 C14.36451605 9.16473109 16.11780709 10.78212231 17.8671875 12.40625 C19.44662466 13.84802979 21.02931067 15.28627037 22.6171875 16.71875 C23.30167969 17.34136719 23.98617187 17.96398437 24.69140625 18.60546875 C27.90584649 21.26589416 31.42117291 23.42644825 34.99609375 25.5703125 C36.8671875 27.40625 36.8671875 27.40625 37.33203125 30.4921875 C37.10193359 31.93464844 37.10193359 31.93464844 36.8671875 33.40625 C33.8671875 35.40625 33.8671875 35.40625 30.57421875 35.34375 C26.27007194 34.2552408 23.74065648 32.33950477 20.5546875 29.40625 C19.9978125 28.91656738 19.4409375 28.42688477 18.8671875 27.92236328 C16.19618086 25.56231193 13.58573736 23.14346165 10.98046875 20.7109375 C10.11808594 19.90914063 9.25570312 19.10734375 8.3671875 18.28125 C7.614375 17.55679687 6.8615625 16.83234375 6.0859375 16.0859375 C3.43232645 14.07704181 2.21773284 13.33797106 -1.1328125 13.40625 C-3.82891547 14.7807184 -6.16388695 16.5818599 -8.5703125 18.40625 C-13.8163809 22.19592 -19.02988826 25.68877654 -24.8203125 28.59375 C-26.46580078 29.41939453 -26.46580078 29.41939453 -28.14453125 30.26171875 C-31.11091949 31.39786483 -32.99892936 31.82885771 -36.1328125 31.40625 C-38.1328125 29.40625 -38.1328125 29.40625 -38.7578125 26.59375 C-38.1328125 23.40625 -38.1328125 23.40625 -36.80078125 22.1484375 C-33.69907402 20.17640469 -30.43547163 18.56076545 -27.1640625 16.890625 C-19.28678728 12.79903059 -8.20977494 1.06460922 0 0 Z " fill="#0C2825" transform="translate(161.1328125,297.59375)"/>
<path d="M0 0 C3.71879923 3.28638071 6.30273893 6.71752335 7.02026367 11.67333984 C7.12462751 14.20283617 7.13828878 16.71848685 7.125 19.25 C7.39181016 29.7813781 9.27666826 35.33766271 17 42.6875 C20.97969243 46.03284548 24.9329912 48.30030525 29.6875 50.375 C29.3575 52.025 29.0275 53.675 28.6875 55.375 C21.07404766 55.99719893 16.40618617 51.98981109 10.6875 47.375 C4.08937274 40.59166215 -0.39371198 32.6873858 -0.26953125 23.03515625 C-0.22183594 21.84792969 -0.17414063 20.66070312 -0.125 19.4375 C-0.07045228 13.65544175 -0.26175863 10.54488083 -4.3125 6.375 C-7.21545805 4.92352097 -9.08511779 5.00260975 -12.3125 5.375 C-17.70949694 9.1113825 -19.7787896 11.75092388 -21.0625 18.0625 C-23.41475599 27.66754531 -30.29382806 34.07900033 -38.3125 39.375 C-47.58341799 44.60697919 -47.58341799 44.60697919 -52.13671875 43.99609375 C-52.85472656 43.79113281 -53.57273437 43.58617187 -54.3125 43.375 C-54.6425 42.055 -54.9725 40.735 -55.3125 39.375 C-51.78459444 37.17813573 -48.20732047 35.36792999 -44.4375 33.625 C-36.28517548 29.56387893 -31.29206182 25.15686642 -28.3125 16.375 C-28.003125 15.199375 -27.69375 14.02375 -27.375 12.8125 C-25.25300813 5.94723219 -21.3883549 1.9133749 -15.3125 -1.625 C-9.96203998 -3.40848667 -5.00258095 -2.45409632 0 0 Z " fill="#F8FBFB" transform="translate(344.3125,197.625)"/>
<path d="M0 0 C3.62339336 2.19729428 6.55070524 4.51336196 9.25 7.8125 C9.75273437 8.40289062 10.25546875 8.99328125 10.7734375 9.6015625 C18.47612084 19.63383788 18.80481986 32.627012 18.25 44.8125 C16.6 45.1425 14.95 45.4725 13.25 45.8125 C10.8959519 42.28142785 10.99728844 40.62352733 10.875 36.4375 C10.31176094 27.20610724 8.84626639 17.05037649 2.078125 10.1796875 C-2.99734324 6.38393134 -9.30018723 4.02483534 -15.68359375 4.4375 C-22.83903599 5.73603016 -28.51054912 8.41242007 -33.09765625 14.1328125 C-35.60978546 18.20685655 -37.4436824 22.54567493 -39.1784668 27.00097656 C-42.18525663 34.56164113 -46.30015193 39.35364197 -53.75 42.8125 C-56.6875 43.0625 -56.6875 43.0625 -58.75 42.8125 C-59.4375 41 -59.4375 41 -59.75 38.8125 C-58.214171 36.67940417 -56.6033279 35.72976189 -54.3125 34.4375 C-49.11967329 31.14448794 -47.05683551 26.59018307 -44.875 21 C-40.59622678 10.62815659 -35.46536177 4.58151861 -25.75 -1.1875 C-18.06241693 -3.75002769 -7.32959711 -3.53727909 0 0 Z " fill="#F8FCFC" transform="translate(348.75,184.1875)"/>
<path d="M0 0 C2.56848822 1.48471673 4.64997597 3.35630779 6.8125 5.375 C7.67004883 6.13683594 7.67004883 6.13683594 8.54492188 6.9140625 C10.7544122 8.88728535 12.90531042 10.90531042 15 13 C14.625 16.625 14.625 16.625 14 20 C11.5625 20.9375 11.5625 20.9375 8 21 C5.58631914 19.35645974 3.48586696 17.5494167 1.34375 15.56640625 C-1.72899543 13.51278805 -3.36228376 13.47172019 -7 14 C-9.96367036 15.64831042 -12.57633971 17.5725706 -15.31640625 19.56640625 C-18 21 -18 21 -20.75 20.859375 C-23 20 -23 20 -24.4375 17.6875 C-25 15 -25 15 -24.40234375 13.0859375 C-22.451601 10.18427558 -20.06688686 8.80405168 -17.125 6.9375 C-12.92641623 4.31199867 -12.92641623 4.31199867 -9.0546875 1.25390625 C-5.8410443 -0.70727144 -3.69259519 -0.52583183 0 0 Z " fill="#0C2825" transform="translate(164,324)"/>
<path d="M0 0 C2.475 0.495 2.475 0.495 5 1 C6.82181539 6.46544617 4.07449824 11.82796329 2 17 C-5.55006804 30.833458 -16.56348112 40.66819347 -31 47 C-33.75 47.125 -33.75 47.125 -36 47 C-36.33 45.68 -36.66 44.36 -37 43 C-36.46632813 42.64808594 -35.93265625 42.29617187 -35.3828125 41.93359375 C-32.91536621 40.29859041 -30.45615147 38.65192488 -28 37 C-26.68902344 36.11828125 -26.68902344 36.11828125 -25.3515625 35.21875 C-20.8196063 32.115789 -16.69367118 29.10407909 -13 25 C-12.50886719 24.48953125 -12.01773437 23.9790625 -11.51171875 23.453125 C-5.28973827 16.72165232 -2.689806 8.6196056 0 0 Z " fill="#F8FBFC" transform="translate(332,211)"/>
<path d="M0 0 C11.22 0 22.44 0 34 0 C34 1.32 34 2.64 34 4 C22.78 4 11.56 4 0 4 C0 2.68 0 1.36 0 0 Z " fill="#77CECE" transform="translate(318,124)"/>
<path d="M0 0 C0.99 0.66 1.98 1.32 3 2 C3.65590838 7.13794898 3.65590838 7.13794898 1.76953125 9.6171875 C-0.37189826 11.29062248 -2.02890048 11.68660444 -4.6875 12.1875 C-5.49574219 12.34605469 -6.30398438 12.50460938 -7.13671875 12.66796875 C-7.75160156 12.77753906 -8.36648438 12.88710937 -9 13 C-6.09700957 8.59175527 -3.08418637 4.28359219 0 0 Z " fill="#F5FAFA" transform="translate(338,236)"/>
<path d="M0 0 C-0.48529412 6.43014706 -0.48529412 6.43014706 -2.75 8.9375 C-5.35402628 10.16717908 -7.15312226 10.23723981 -10 10 C-10.6875 8.1875 -10.6875 8.1875 -11 6 C-8.94812977 2.79395277 -3.80268687 0 0 0 Z " fill="#F3F9F9" transform="translate(312,260)"/>
<path d="M0 0 C5.75 1.75 5.75 1.75 8 4 C7.625 6.125 7.625 6.125 7 8 C4.625 8.1875 4.625 8.1875 2 8 C-0.1519437 4.77208445 -0.20086443 3.71599191 0 0 Z " fill="#F3F9F9" transform="translate(362,257)"/>
<path d="M0 0 C2 2 2 2 2.125 5.125 C2.08375 6.07375 2.0425 7.0225 2 8 C1.01 7.67 0.02 7.34 -1 7 C-1.04254356 5.00045254 -1.04080783 2.99958364 -1 1 C-0.67 0.67 -0.34 0.34 0 0 Z " fill="#E3F2F2" transform="translate(311,274)"/>
<path d="" fill="#5E9E9D" transform="translate(0,0)"/>
</svg>
